{
  "accessors": [
    {
      "bufferView": 2,
      "componentType": 5126,
      "count": 1999,
      "max": [
        0.3156721293926239,
        0.45559656620025635,
        0.6642577052116394
      ],
      "min": [
        -0.29227229952812195,
        -0.4554772973060608,
        -0.00019508600234985352
      ],
      "type": "VEC3"
    },
    {
      "bufferView": 2,
      "byteOffset": 23988,
      "componentType": 5126,
      "count": 1999,
      "max": [
        1.0,
        1.0,
        1.0
      ],
      "min": [
        -1.0,
        -1.0,
        -1.0
      ],
      "type": "VEC3"
    },
    {
      "bufferView": 3,
      "componentType": 5126,
      "count": 1999,
      "max": [
        1.0,
        1.0,
        1.0,
        1.0
      ],
      "min": [
        -1.0,
        -1.0,
        -1.0,
        1.0
      ],
      "type": "VEC4"
    },
    {
      "bufferView": 1,
      "componentType": 5126,
      "count": 1999,
      "max": [
        0.9900765419006348,
        0.9994049072265625
      ],
      "min": [
        0.0005950199556536973,
        0.0005950199556536973
      ],
      "type": "VEC2"
    },
    {
      "bufferView": 0,
      "componentType": 5125,
      "count": 6441,
      "type": "SCALAR"
    },
    {
      "bufferView": 2,
      "byteOffset": 47976,
      "componentType": 5126,
      "count": 142,
      "max": [
        0.3107589781284332,
        0.04216623306274414,
        0.2667434811592102
      ],
      "min": [
        0.2866269052028656,
        -0.04167558252811432,
        0.13438557088375092
      ],
      "type": "VEC3"
    },
    {
      "bufferView": 2,
      "byteOffset": 49680,
      "componentType": 5126,
      "count": 142,
      "max": [
        0.9992032647132874,
        1.0,
        0.9992031455039978
      ],
      "min": [
        -0.9997091889381409,
        -1.0,
        -0.9868195652961731
      ],
      "type": "VEC3"
    },
    {
      "bufferView": 3,
      "byteOffset": 31984,
      "componentType": 5126,
      "count": 142,
      "max": [
        0.9992032051086426,
        1.0,
        0.9992032051086426,
        1.0
      ],
      "min": [
        -0.17521975934505463,
        -1.0,
        -0.9993079900741577,
        1.0
      ],
      "type": "VEC4"
    },
    {
      "bufferView": 1,
      "byteOffset": 15992,
      "componentType": 5126,
      "count": 142,
      "max": [
        0.923686146736145,
        0.8187583088874817
      ],
      "min": [
        0.21743150055408478,
        0.3054722845554352
      ],
      "type": "VEC2"
    },
    {
      "bufferView": 0,
      "byteOffset": 25764,
      "componentType": 5125,
      "count": 468,
      "type": "SCALAR"
    },
    {
      "bufferView": 2,
      "byteOffset": 51384,
      "componentType": 5126,
      "count": 132,
      "max": [
        0.2551949918270111,
        0.41130495071411133,
        0.6388870477676392
      ],
      "min": [
        -0.2590746581554413,
        -0.41053104400634766,
        0.0397334098815918
      ],
      "type": "VEC3"
    },
    {
      "bufferView": 2,
      "byteOffset": 52968,
      "componentType": 5126,
      "count": 132,
      "max": [
        1.0,
        1.0,
        0.9906483292579651
      ],
      "min": [
        -1.0,
        -1.0,
        -1.4556153473677114e-06
      ],
      "type": "VEC3"
    },
    {
      "bufferView": 3,
      "byteOffset": 34256,
      "componentType": 5126,
      "count": 132,
      "max": [
        1.0,
        1.0,
        1.0,
        1.0
      ],
      "min": [
        -1.644863374394845e-07,
        -1.0863229363167193e-05,
        -1.0,
        1.0
      ],
      "type": "VEC4"
    },
    {
      "bufferView": 1,
      "byteOffset": 17128,
      "componentType": 5126,
      "count": 132,
      "max": [
        0.9874237179756165,
        0.9550510048866272
      ],
      "min": [
        0.0005950199556536973,
        0.0005950199556536973
      ],
      "type": "VEC2"
    },
    {
      "bufferView": 0,
      "byteOffset": 27636,
      "componentType": 5125,
      "count": 312,
      "type": "SCALAR"
    }
  ],
  "asset": {
    "extras": {
      "author": "JSlyin (https://sketchfab.com/popovich.stanislav.01)",
      "license": "CC-BY-4.0 (http://creativecommons.org/licenses/by/4.0/)",
      "source": "https://sketchfab.com/3d-models/treasure-chest-8bdf3dee4f344e36839c4c1c7e1dcd2b",
      "title": "Treasure chest"
    },
    "generator": "Sketchfab-12.66.0",
    "version": "2.0"
  },
  "bufferViews": [
    {
      "buffer": 0,
      "byteLength": 28884,
      "name": "floatBufferViews",
      "target": 34963
    },
    {
      "buffer": 0,
      "byteLength": 18184,
      "byteOffset": 28884,
      "byteStride": 8,
      "name": "floatBufferViews",
      "target": 34962
    },
    {
      "buffer": 0,
      "byteLength": 54552,
      "byteOffset": 47068,
      "byteStride": 12,
      "name": "floatBufferViews",
      "target": 34962
    },
    {
      "buffer": 0,
      "byteLength": 36368,
      "byteOffset": 101620,
      "byteStride": 16,
      "name": "floatBufferViews",
      "target": 34962
    }
  ],
  "buffers": [
    {
      "byteLength": 137988,
      "uri": "scene.bin"
    }
  ],
  "images": [
    {
      "uri": "textures/Box_met_baseColor.png"
    },
    {
      "uri": "textures/Box_met_metallicRoughness.png"
    },
    {
      "uri": "textures/Box_met_normal.png"
    },
    {
      "uri": "textures/Zamok_baseColor.png"
    },
    {
      "uri": "textures/Zamok_metallicRoughness.png"
    },
    {
      "uri": "textures/Zamok_normal.png"
    },
    {
      "uri": "textures/Wood_baseColor.png"
    },
    {
      "uri": "textures/Wood_metallicRoughness.png"
    },
    {
      "uri": "textures/Wood_normal.png"
    }
  ],
  "materials": [
    {
      "doubleSided": true,
      "name": "Box_met",
      "normalTexture": {
        "index": 2
      },
      "occlusionTexture": {
        "index": 1
      },
      "pbrMetallicRoughness": {
        "baseColorTexture": {
          "index": 0
        },
        "metallicRoughnessTexture": {
          "index": 1
        }
      }
    },
    {
      "doubleSided": true,
      "name": "Zamok",
      "normalTexture": {
        "index": 5
      },
      "occlusionTexture": {
        "index": 4
      },
      "pbrMetallicRoughness": {
        "baseColorTexture": {
          "index": 3
        },
        "metallicRoughnessTexture": {
          "index": 4
        }
      }
    },
    {
      "doubleSided": true,
      "name": "Wood",
      "normalTexture": {
        "index": 8
      },
      "occlusionTexture": {
        "index": 7
      },
      "pbrMetallicRoughness": {
        "baseColorTexture": {
          "index": 6
        },
        "metallicRoughnessTexture": {
          "index": 7
        },
        "roughnessFactor": 0.8199810606060606
      }
    }
  ],
  "meshes": [
    {
      "name": "Dower chest_Box met_0",
      "primitives": [
        {
          "attributes": {
            "NORMAL": 1,
            "POSITION": 0,
            "TANGENT": 2,
            "TEXCOORD_0": 3
          },
          "indices": 4,
          "material": 0,
          "mode": 4
        }
      ]
    },
    {
      "name": "Dower chest_Zamok_0",
      "primitives": [
        {
          "attributes": {
            "NORMAL": 6,
            "POSITION": 5,
            "TANGENT": 7,
            "TEXCOORD_0": 8
          },
          "indices": 9,
          "material": 1,
          "mode": 4
        }
      ]
    },
    {
      "name": "Dower chest_Wood_0",
      "primitives": [
        {
          "attributes": {
            "NORMAL": 11,
            "POSITION": 10,
            "TANGENT": 12,
            "TEXCOORD_0": 13
          },
          "indices": 14,
          "material": 2,
          "mode": 4
        }
      ]
    }
  ],
  "nodes": [
    {
      "children": [
        1
      ],
      "matrix": [
        1.0,
        0.0,
        0.0,
        0.0,
        0.0,
        2.220446049250313e-16,
        -1.0,
        0.0,
        0.0,
        1.0,
        2.220446049250313e-16,
        0.0,
        0.0,
        0.0,
        0.0,
        1.0
      ],
      "name": "Sketchfab_model"
    },
    {
      "children": [
        2
      ],
      "matrix": [
        1.0,
        0.0,
        0.0,
        0.0,
        0.0,
        0.0,
        1.0,
        0.0,
        0.0,
        -1.0,
        0.0,
        0.0,
        0.0,
        0.0,
        0.0,
        1.0
      ],
      "name": "70aacc404a4b4da784a959dff0909bf0.fbx"
    },
    {
      "children": [
        3
      ],
      "name": "RootNode"
    },
    {
      "children": [
        4,
        5,
        6
      ],
      "matrix": [
        100.0,
        0.0,
        0.0,
        0.0,
        0.0,
        -1.629206793918314e-05,
        -99.99999999999868,
        0.0,
        0.0,
        99.99999999999868,
        -1.629206793918314e-05,
        0.0,
        0.0,
        0.0,
        0.0,
        1.0
      ],
      "name": "Dower chest"
    },
    {
      "mesh": 0,
      "name": "Dower chest_Box met_0"
    },
    {
      "mesh": 1,
      "name": "Dower chest_Zamok_0"
    },
    {
      "mesh": 2,
      "name": "Dower chest_Wood_0"
    }
  ],
  "samplers": [
    {
      "magFilter": 9729,
      "minFilter": 9987,
      "wrapS": 10497,
      "wrapT": 10497
    }
  ],
  "scene": 0,
  "scenes": [
    {
      "name": "Sketchfab_Scene",
      "nodes": [
        0
      ]
    }
  ],
  "textures": [
    {
      "sampler": 0,
      "source": 0
    },
    {
      "sampler": 0,
      "source": 1
    },
    {
      "sampler": 0,
      "source": 2
    },
    {
      "sampler": 0,
      "source": 3
    },
    {
      "sampler": 0,
      "source": 4
    },
    {
      "sampler": 0,
      "source": 5
    },
    {
      "sampler": 0,
      "source": 6
    },
    {
      "sampler": 0,
      "source": 7
    },
    {
      "sampler": 0,
      "source": 8
    }
  ]
}
